<svg width="30" height="30" viewBox="0 0 30 30" fill="none" xmlns="http://www.w3.org/2000/svg">
<g clip-path="url(#clip0)">
<path d="M13.345 0.0882819C8.73368 0.566711 4.69297 3.06838 2.23742 6.98227C-0.610092 11.5129 -0.736905 17.4155 1.91463 22.0441C3.31533 24.4824 5.36162 26.4826 7.77682 27.7738C9.83464 28.8747 12.1057 29.48 14.2385 29.503L15.0167 29.5088L15.034 23.7849L15.0455 18.0668H13.4603H11.8752V16.2223V14.3777L13.4488 14.3662L15.0167 14.3489L15.0512 12.4179C15.0801 10.6656 15.0916 10.4466 15.2069 10.0258C15.6507 8.43485 16.7056 7.37424 18.3023 6.93039C18.7173 6.81511 18.9017 6.80358 20.118 6.80358C20.8616 6.79782 21.7262 6.82087 22.0375 6.8497L22.5966 6.89581V8.5559V10.216L21.2305 10.239C19.8644 10.2563 19.8586 10.2563 19.5589 10.412C18.9248 10.7463 18.8499 11.0172 18.8499 12.9194V14.3777H20.6656C21.6628 14.3777 22.4813 14.395 22.4813 14.4181C22.4813 14.4469 22.3776 15.2539 22.2507 16.2165C22.1239 17.1849 22.0202 17.9919 22.0202 18.0207C22.0202 18.0438 21.3054 18.0668 20.435 18.0668H18.8499V23.514C18.8499 26.5114 18.8614 28.9612 18.8729 28.9612C18.9824 28.9612 20.3543 28.4424 20.8731 28.2061C22.6081 27.4106 23.9512 26.4538 25.3346 25.0358C26.5393 23.7965 27.2829 22.7301 28.0495 21.1507C28.7297 19.7442 29.1966 18.1764 29.4099 16.5681C29.5021 15.8534 29.5021 13.6342 29.4099 12.9655C28.9257 9.55887 27.5192 6.6883 25.1847 4.35379C22.8963 2.07117 20.0488 0.641646 16.8036 0.163217C16.0946 0.0594609 14.0483 0.0133473 13.345 0.0882819Z" fill="white"/>
</g>
<defs>
<clipPath id="clip0">
<path d="M0 5.02539C0 2.26396 2.23858 0.0253906 5 0.0253906L29.5127 0.0253906V29.5381H5C2.23857 29.5381 0 27.2995 0 24.5381L0 5.02539Z" fill="white"/>
</clipPath>
</defs>
</svg>
