<svg width="31" height="30" viewBox="0 0 31 30" fill="none" xmlns="http://www.w3.org/2000/svg">
<g clip-path="url(#clip0)">
<path d="M13.9665 0.0635497C9.35518 0.541979 5.31447 3.04941 2.85892 6.95754C-0.622659 12.4912 0.0286969 19.806 4.42679 24.6248C6.86505 27.2937 9.90855 28.8903 13.5631 29.4091C14.2432 29.5071 16.5086 29.5013 17.2233 29.4091C20.5608 28.948 23.5467 27.4666 25.8178 25.1494C26.5671 24.3885 26.7227 24.2098 27.2185 23.5527C28.6941 21.5871 29.6567 19.1892 30.0314 16.5722C30.1294 15.8921 30.1294 13.621 30.0314 12.9408C29.7835 11.1942 29.3282 9.70707 28.6076 8.24872C27.8352 6.70391 27.0513 5.60295 25.8235 4.36365C23.5467 2.05796 20.6991 0.622678 17.4251 0.138484C16.7161 0.0347287 14.6698 -0.0113849 13.9665 0.0635497ZM18.8546 6.34077C20.5147 6.45029 21.4831 6.81343 22.3708 7.65501C23.27 8.51387 23.685 9.56872 23.7945 11.2807C23.8695 12.4047 23.8695 17.0795 23.7945 18.2208C23.685 19.9501 23.2584 21.0164 22.3362 21.8868C21.4773 22.6996 20.4859 23.0685 18.8546 23.1723C17.7479 23.2414 13.0097 23.2414 11.903 23.1723C10.2429 23.0627 9.27448 22.6996 8.3868 21.858C7.48758 20.9991 7.07256 19.9443 6.96304 18.2323C6.8881 17.1141 6.89387 12.3067 6.96304 11.2461C7.07832 9.5572 7.49334 8.50811 8.3868 7.65501C9.2399 6.84802 10.2602 6.44453 11.7416 6.34653C12.7157 6.27736 17.8574 6.27736 18.8546 6.34077Z" fill="white"/>
<path d="M13.2718 7.84513C11.5425 7.87972 11.2601 7.89701 10.8739 8.00076C9.64611 8.33509 8.94864 9.02679 8.62008 10.2546C8.51632 10.6408 8.49903 10.929 8.46445 12.7274C8.44715 13.8399 8.44715 15.6729 8.46445 16.7912C8.49903 18.5838 8.51632 18.8721 8.62008 19.2583C8.94864 20.486 9.64611 21.1835 10.8739 21.5121C11.2601 21.6158 11.5483 21.6331 13.3467 21.6677C14.4592 21.685 16.2922 21.685 17.4105 21.6677C19.2147 21.6331 19.4914 21.6158 19.8891 21.5063C21.0823 21.1893 21.8086 20.4687 22.1314 19.2698C22.2351 18.8663 22.2524 18.6011 22.287 16.7854C22.3043 15.6729 22.3043 13.8399 22.287 12.7216C22.2524 10.9232 22.2351 10.6408 22.1314 10.2546C21.8028 9.02679 21.0996 8.32356 19.8776 8.00076C19.428 7.88548 19.3127 7.87972 16.0674 7.82207C15.6063 7.81631 14.3497 7.82784 13.2718 7.84513ZM20.258 9.28618C20.4771 9.36688 20.7364 9.61474 20.8287 9.83954C21.1111 10.4909 20.6096 11.2402 19.9006 11.2402C19.3588 11.2402 18.8919 10.7791 18.8919 10.2373C18.8919 9.53981 19.6067 9.03832 20.258 9.28618ZM16.7764 10.6465C17.4739 10.8886 17.8601 11.1365 18.4077 11.6726C18.938 12.1971 19.2666 12.7159 19.5087 13.4018C19.6585 13.8284 19.6701 13.9264 19.6701 14.7564C19.6701 15.5865 19.6585 15.6844 19.5087 16.111C19.2781 16.7739 18.9322 17.3157 18.4365 17.8172C17.935 18.3129 17.3932 18.6588 16.7303 18.8893C16.3038 19.0392 16.2058 19.0507 15.3757 19.0507C14.5457 19.0507 14.4477 19.0392 14.0211 18.8893C13.3352 18.6473 12.8164 18.3187 12.2919 17.7884C11.7558 17.2408 11.5137 16.8546 11.2601 16.1571C11.0872 15.6672 11.0814 15.6153 11.0814 14.7564C11.0872 13.9437 11.0987 13.8226 11.2428 13.4018C11.5425 12.5084 12.1824 11.6668 12.9548 11.1538C13.7963 10.5947 14.4016 10.4275 15.491 10.4506C16.1827 10.4678 16.3211 10.4909 16.7764 10.6465Z" fill="white"/>
<path d="M14.6956 12.0242C13.1796 12.4276 12.2573 13.9494 12.6377 15.4135C12.9144 16.4684 13.6638 17.2177 14.7244 17.4944C16.7073 18.0132 18.6325 16.0879 18.1137 14.105C17.7102 12.566 16.1712 11.6264 14.6956 12.0242Z" fill="white"/>
</g>
<defs>
<clipPath id="clip0">
<path d="M0.619385 5C0.619385 2.23857 2.85796 0 5.61938 0L30.1321 0V29.5127H5.61938C2.85796 29.5127 0.619385 27.2742 0.619385 24.5127L0.619385 5Z" fill="white"/>
</clipPath>
</defs>
</svg>
