<svg width="30" height="30" viewBox="0 0 30 30" fill="none" xmlns="http://www.w3.org/2000/svg">
<g clip-path="url(#clip0)">
<path d="M13.6178 0.0834039C10.753 0.360086 7.91125 1.53022 5.68627 3.34018C5.02915 3.87049 3.99159 4.91957 3.47282 5.57093C2.15281 7.22525 1.06914 9.46177 0.619534 11.4677C0.337088 12.7243 0.273682 13.3411 0.273682 14.7821C0.273682 16.2232 0.337088 16.8399 0.619534 18.0965C1.07491 20.1428 2.1874 22.4139 3.55351 24.0913C4.08382 24.7484 5.13291 25.786 5.78426 26.3048C7.43859 27.6248 9.6751 28.7084 11.681 29.1581C12.9376 29.4405 13.5544 29.5039 14.9955 29.5039C16.4365 29.5039 17.0533 29.4405 18.3099 29.1581C19.8143 28.8237 21.7857 27.9822 23.0826 27.1233C25.3249 25.6304 27.0484 23.6705 28.2301 21.2669C28.9506 19.797 29.3599 18.477 29.6193 16.7996C29.7576 15.8716 29.7576 13.6927 29.6193 12.7647C29.3599 11.0873 28.9506 9.76727 28.2301 8.2974C27.4577 6.72953 26.5988 5.53058 25.3595 4.30857C24.1433 3.10385 23.0308 2.31415 21.4802 1.55328C20.0276 0.838515 18.6788 0.417728 17.0706 0.169867C16.3443 0.0603471 14.3729 0.0142334 13.6178 0.0834039ZM16.3846 3.83014C18.7941 4.06647 20.8173 5.1559 22.1315 6.93128C23.1922 8.36657 23.6245 9.95749 23.4688 11.9058C23.2383 14.8571 22.0912 17.2204 20.2639 18.5173C19.163 19.307 18.1081 19.6471 16.7824 19.6471C15.5834 19.6529 14.7707 19.3416 14.0213 18.6038C13.785 18.3675 13.589 18.1888 13.5832 18.1945C13.5775 18.2061 13.3872 18.9496 13.1567 19.8546C12.6379 21.9124 12.5399 22.2064 12.0845 23.1229C11.5485 24.2066 10.4821 25.7918 10.2976 25.7918C10.1651 25.7918 10.1132 25.59 10.044 24.8637C9.92873 23.5725 9.91143 23.0999 9.97484 22.3332C10.0555 21.3245 10.0555 21.3245 10.9893 17.3645L11.7906 13.9809L11.681 13.6466C11.3064 12.4649 11.3294 11.2026 11.756 10.2284C12.1768 9.26002 13.1509 8.59713 14.0098 8.70089C14.4652 8.75277 14.909 8.97757 15.1223 9.27155C15.4508 9.72115 15.4797 9.84797 15.4797 10.6607C15.4739 11.485 15.52 11.2775 14.7015 14.0616C14.3211 15.3528 14.2922 15.8197 14.5516 16.35C15.007 17.2838 16.033 17.6931 17.1397 17.3818C18.6327 16.9725 19.8028 15.2317 20.2524 12.7704C20.3446 12.2516 20.3735 11.8539 20.3792 10.9778C20.385 9.96902 20.3735 9.80762 20.2524 9.39259C19.774 7.72098 18.5635 6.56813 16.84 6.13005C16.1425 5.95713 14.7073 5.91678 13.9637 6.04359C12.6264 6.27416 11.4793 6.87364 10.6147 7.79015C9.76156 8.6836 9.23126 9.7615 9.02951 10.9893C8.80471 12.3727 9.01798 13.4218 9.71545 14.3786C9.88261 14.615 9.9806 14.8052 9.9806 14.9147C9.9806 15.0992 9.71545 16.1886 9.62899 16.35C9.57135 16.4595 9.32925 16.546 9.14479 16.5172C8.93728 16.4883 8.32051 16.1137 7.99772 15.8139C6.53361 14.4766 6.06671 11.583 6.93134 9.23696C7.54811 7.55381 8.81047 6.04936 10.4187 5.08097C12.0154 4.12411 14.3499 3.63415 16.3846 3.83014Z" fill="white"/>
</g>
<defs>
<clipPath id="clip0">
<path d="M0.239136 5.02539C0.239136 2.26396 2.47771 0.0253906 5.23914 0.0253906L29.7519 0.0253906V29.5381H5.23913C2.47771 29.5381 0.239136 27.2995 0.239136 24.5381L0.239136 5.02539Z" fill="white"/>
</clipPath>
</defs>
</svg>
